%TF.GenerationSoftware,KiCad,Pcbnew,5.1.10-88a1d61d58~90~ubuntu20.04.1*%
%TF.CreationDate,2022-08-18T12:34:06+02:00*%
%TF.ProjectId,OptoIsolation,4f70746f-4973-46f6-9c61-74696f6e2e6b,rev?*%
%TF.SameCoordinates,PX4d83c00PY8eeaea0*%
%TF.FileFunction,Profile,NP*%
%FSLAX46Y46*%
G04 Gerber Fmt 4.6, Leading zero omitted, Abs format (unit mm)*
G04 Created by KiCad (PCBNEW 5.1.10-88a1d61d58~90~ubuntu20.04.1) date 2022-08-18 12:34:06*
%MOMM*%
%LPD*%
G01*
G04 APERTURE LIST*
%TA.AperFunction,Profile*%
%ADD10C,0.100000*%
%TD*%
%TA.AperFunction,Profile*%
%ADD11C,0.050000*%
%TD*%
G04 APERTURE END LIST*
D10*
X55880000Y47625000D02*
X40005000Y47625000D01*
X40005000Y47625000D02*
X40005000Y48625000D01*
X55880000Y48625000D02*
X55880000Y47625000D01*
X40005000Y48625000D02*
X55880000Y48625000D01*
X40640000Y73295000D02*
X40640000Y74295000D01*
X54610000Y74295000D02*
X54610000Y73295000D01*
X22860000Y74295000D02*
X36830000Y74295000D01*
X36830000Y74295000D02*
X36830000Y73295000D01*
X54610000Y73295000D02*
X40640000Y73295000D01*
X5080000Y73295000D02*
X5080000Y74295000D01*
X36830000Y73295000D02*
X22860000Y73295000D01*
X5080000Y74295000D02*
X19050000Y74295000D01*
X19050000Y74295000D02*
X19050000Y73295000D01*
X19050000Y73295000D02*
X5080000Y73295000D01*
X40640000Y74295000D02*
X54610000Y74295000D01*
X22860000Y73295000D02*
X22860000Y74295000D01*
X22860000Y20320000D02*
X22860000Y21320000D01*
X36830000Y20320000D02*
X22860000Y20320000D01*
X22860000Y21320000D02*
X36830000Y21320000D01*
X36830000Y21320000D02*
X36830000Y20320000D01*
X40640000Y20320000D02*
X40640000Y21320000D01*
X54610000Y20320000D02*
X40640000Y20320000D01*
X40640000Y21320000D02*
X54610000Y21320000D01*
X54610000Y21320000D02*
X54610000Y20320000D01*
X19050000Y21320000D02*
X19050000Y20320000D01*
X5080000Y21320000D02*
X19050000Y21320000D01*
X5080000Y20320000D02*
X5080000Y21320000D01*
X19050000Y20320000D02*
X5080000Y20320000D01*
D11*
X59690000Y0D02*
X0Y0D01*
X59690000Y96012000D02*
X59690000Y0D01*
X0Y96012000D02*
X59690000Y96012000D01*
X0Y0D02*
X0Y96012000D01*
M02*
