%TF.GenerationSoftware,KiCad,Pcbnew,5.1.10-88a1d61d58~90~ubuntu20.04.1*%
%TF.CreationDate,2022-08-18T12:34:06+02:00*%
%TF.ProjectId,OptoIsolation,4f70746f-4973-46f6-9c61-74696f6e2e6b,rev?*%
%TF.SameCoordinates,PX4d83c00PY8eeaea0*%
%TF.FileFunction,Copper,L2,Bot*%
%TF.FilePolarity,Positive*%
%FSLAX46Y46*%
G04 Gerber Fmt 4.6, Leading zero omitted, Abs format (unit mm)*
G04 Created by KiCad (PCBNEW 5.1.10-88a1d61d58~90~ubuntu20.04.1) date 2022-08-18 12:34:06*
%MOMM*%
%LPD*%
G01*
G04 APERTURE LIST*
%TA.AperFunction,ComponentPad*%
%ADD10O,1.740000X2.190000*%
%TD*%
%TA.AperFunction,ComponentPad*%
%ADD11O,1.700000X1.700000*%
%TD*%
%TA.AperFunction,ComponentPad*%
%ADD12R,1.700000X1.700000*%
%TD*%
%TA.AperFunction,ComponentPad*%
%ADD13C,4.000000*%
%TD*%
%TA.AperFunction,ComponentPad*%
%ADD14C,1.600000*%
%TD*%
%TA.AperFunction,ComponentPad*%
%ADD15R,1.600000X1.600000*%
%TD*%
%TA.AperFunction,SMDPad,CuDef*%
%ADD16R,3.500000X1.800000*%
%TD*%
%TA.AperFunction,ComponentPad*%
%ADD17O,1.600000X1.600000*%
%TD*%
%TA.AperFunction,ComponentPad*%
%ADD18O,1.600000X2.400000*%
%TD*%
%TA.AperFunction,ComponentPad*%
%ADD19R,1.600000X2.400000*%
%TD*%
%TA.AperFunction,ViaPad*%
%ADD20C,1.500000*%
%TD*%
%TA.AperFunction,Conductor*%
%ADD21C,1.500000*%
%TD*%
%TA.AperFunction,Conductor*%
%ADD22C,1.000000*%
%TD*%
%TA.AperFunction,Conductor*%
%ADD23C,0.800000*%
%TD*%
G04 APERTURE END LIST*
%TO.P,R13,2*%
%TO.N,/5V_PC*%
%TA.AperFunction,SMDPad,CuDef*%
G36*
G01*
X47890000Y64145000D02*
X47890000Y65395000D01*
G75*
G02*
X48140000Y65645000I250000J0D01*
G01*
X48940000Y65645000D01*
G75*
G02*
X49190000Y65395000I0J-250000D01*
G01*
X49190000Y64145000D01*
G75*
G02*
X48940000Y63895000I-250000J0D01*
G01*
X48140000Y63895000D01*
G75*
G02*
X47890000Y64145000I0J250000D01*
G01*
G37*
%TD.AperFunction*%
%TO.P,R13,1*%
%TO.N,/RX_PC*%
%TA.AperFunction,SMDPad,CuDef*%
G36*
G01*
X44790000Y64145000D02*
X44790000Y65395000D01*
G75*
G02*
X45040000Y65645000I250000J0D01*
G01*
X45840000Y65645000D01*
G75*
G02*
X46090000Y65395000I0J-250000D01*
G01*
X46090000Y64145000D01*
G75*
G02*
X45840000Y63895000I-250000J0D01*
G01*
X45040000Y63895000D01*
G75*
G02*
X44790000Y64145000I0J250000D01*
G01*
G37*
%TD.AperFunction*%
%TD*%
%TO.P,R12,1*%
%TO.N,Net-(R12-Pad1)*%
%TA.AperFunction,SMDPad,CuDef*%
G36*
G01*
X51140000Y41285000D02*
X51140000Y42535000D01*
G75*
G02*
X51390000Y42785000I250000J0D01*
G01*
X52190000Y42785000D01*
G75*
G02*
X52440000Y42535000I0J-250000D01*
G01*
X52440000Y41285000D01*
G75*
G02*
X52190000Y41035000I-250000J0D01*
G01*
X51390000Y41035000D01*
G75*
G02*
X51140000Y41285000I0J250000D01*
G01*
G37*
%TD.AperFunction*%
%TO.P,R12,2*%
%TO.N,+5V*%
%TA.AperFunction,SMDPad,CuDef*%
G36*
G01*
X54240000Y41285000D02*
X54240000Y42535000D01*
G75*
G02*
X54490000Y42785000I250000J0D01*
G01*
X55290000Y42785000D01*
G75*
G02*
X55540000Y42535000I0J-250000D01*
G01*
X55540000Y41285000D01*
G75*
G02*
X55290000Y41035000I-250000J0D01*
G01*
X54490000Y41035000D01*
G75*
G02*
X54240000Y41285000I0J250000D01*
G01*
G37*
%TD.AperFunction*%
%TD*%
%TO.P,J5,1*%
%TO.N,/RX_PC*%
%TA.AperFunction,ComponentPad*%
G36*
G01*
X43580000Y58844999D02*
X43580000Y60535001D01*
G75*
G02*
X43829999Y60785000I249999J0D01*
G01*
X45070001Y60785000D01*
G75*
G02*
X45320000Y60535001I0J-249999D01*
G01*
X45320000Y58844999D01*
G75*
G02*
X45070001Y58595000I-249999J0D01*
G01*
X43829999Y58595000D01*
G75*
G02*
X43580000Y58844999I0J249999D01*
G01*
G37*
%TD.AperFunction*%
D10*
%TO.P,J5,2*%
%TO.N,/TX_PC*%
X46990000Y59690000D03*
%TO.P,J5,3*%
%TO.N,/5V_PC*%
X49530000Y59690000D03*
%TO.P,J5,4*%
%TO.N,/GND_PC*%
X52070000Y59690000D03*
%TD*%
D11*
%TO.P,J9,9*%
%TO.N,Net-(J10-Pad5)*%
X31750000Y31115000D03*
%TO.P,J9,8*%
%TO.N,Net-(J10-Pad9)*%
X34290000Y31115000D03*
%TO.P,J9,7*%
%TO.N,Net-(J10-Pad4)*%
X36830000Y31115000D03*
%TO.P,J9,6*%
%TO.N,Net-(J10-Pad8)*%
X39370000Y31115000D03*
%TO.P,J9,5*%
%TO.N,Net-(J10-Pad3)*%
X41910000Y31115000D03*
%TO.P,J9,4*%
%TO.N,Net-(J10-Pad7)*%
X44450000Y31115000D03*
%TO.P,J9,3*%
%TO.N,Net-(J10-Pad2)*%
X46990000Y31115000D03*
%TO.P,J9,2*%
%TO.N,Net-(J10-Pad6)*%
X49530000Y31115000D03*
D12*
%TO.P,J9,1*%
%TO.N,Net-(J10-Pad1)*%
X52070000Y31115000D03*
%TD*%
D13*
%TO.P,J10,0*%
%TO.N,Net-(J10-Pad0)*%
X55220000Y25250000D03*
X30220000Y25250000D03*
D14*
%TO.P,J10,9*%
%TO.N,Net-(J10-Pad9)*%
X38565000Y23830000D03*
%TO.P,J10,8*%
%TO.N,Net-(J10-Pad8)*%
X41335000Y23830000D03*
%TO.P,J10,7*%
%TO.N,Net-(J10-Pad7)*%
X44105000Y23830000D03*
%TO.P,J10,6*%
%TO.N,Net-(J10-Pad6)*%
X46875000Y23830000D03*
%TO.P,J10,5*%
%TO.N,Net-(J10-Pad5)*%
X37180000Y26670000D03*
%TO.P,J10,4*%
%TO.N,Net-(J10-Pad4)*%
X39950000Y26670000D03*
%TO.P,J10,3*%
%TO.N,Net-(J10-Pad3)*%
X42720000Y26670000D03*
%TO.P,J10,2*%
%TO.N,Net-(J10-Pad2)*%
X45490000Y26670000D03*
D15*
%TO.P,J10,1*%
%TO.N,Net-(J10-Pad1)*%
X48260000Y26670000D03*
%TD*%
D16*
%TO.P,D6,2*%
%TO.N,GND*%
X3850000Y41910000D03*
%TO.P,D6,1*%
%TO.N,+5V*%
X8850000Y41910000D03*
%TD*%
%TO.P,D5,2*%
%TO.N,GND*%
X3810000Y67310000D03*
%TO.P,D5,1*%
%TO.N,+12V*%
X8810000Y67310000D03*
%TD*%
D17*
%TO.P,U3,16*%
%TO.N,/PROBE_OUT*%
X30480000Y36830000D03*
%TO.P,U3,8*%
%TO.N,Net-(J6-Pad1)*%
X12700000Y44450000D03*
%TO.P,U3,15*%
%TO.N,GND*%
X27940000Y36830000D03*
%TO.P,U3,7*%
%TO.N,Net-(D4-Pad1)*%
X15240000Y44450000D03*
%TO.P,U3,14*%
%TO.N,/END_Z_OUT*%
X25400000Y36830000D03*
%TO.P,U3,6*%
%TO.N,Net-(J6-Pad3)*%
X17780000Y44450000D03*
%TO.P,U3,13*%
%TO.N,GND*%
X22860000Y36830000D03*
%TO.P,U3,5*%
%TO.N,Net-(D3-Pad1)*%
X20320000Y44450000D03*
%TO.P,U3,12*%
%TO.N,/END_Y_OUT*%
X20320000Y36830000D03*
%TO.P,U3,4*%
%TO.N,Net-(J6-Pad5)*%
X22860000Y44450000D03*
%TO.P,U3,11*%
%TO.N,GND*%
X17780000Y36830000D03*
%TO.P,U3,3*%
%TO.N,Net-(D2-Pad1)*%
X25400000Y44450000D03*
%TO.P,U3,10*%
%TO.N,/END_X_OUT*%
X15240000Y36830000D03*
%TO.P,U3,2*%
%TO.N,/PROBE_IN*%
X27940000Y44450000D03*
%TO.P,U3,9*%
%TO.N,GND*%
X12700000Y36830000D03*
D15*
%TO.P,U3,1*%
%TO.N,Net-(D1-Pad1)*%
X30480000Y44450000D03*
%TD*%
D18*
%TO.P,U2,6*%
%TO.N,+5V*%
X54610000Y44450000D03*
%TO.P,U2,3*%
%TO.N,Net-(U2-Pad3)*%
X49530000Y52070000D03*
%TO.P,U2,5*%
%TO.N,GND*%
X52070000Y44450000D03*
%TO.P,U2,2*%
%TO.N,Net-(R3-Pad1)*%
X52070000Y52070000D03*
%TO.P,U2,4*%
%TO.N,Net-(R12-Pad1)*%
X49530000Y44450000D03*
D19*
%TO.P,U2,1*%
%TO.N,/5V_PC*%
X54610000Y52070000D03*
%TD*%
D18*
%TO.P,U1,6*%
%TO.N,/5V_PC*%
X40640000Y52070000D03*
%TO.P,U1,3*%
%TO.N,Net-(U1-Pad3)*%
X45720000Y44450000D03*
%TO.P,U1,5*%
%TO.N,/GND_PC*%
X43180000Y52070000D03*
%TO.P,U1,2*%
%TO.N,Net-(R1-Pad1)*%
X43180000Y44450000D03*
%TO.P,U1,4*%
%TO.N,/RX_PC*%
X45720000Y52070000D03*
D19*
%TO.P,U1,1*%
%TO.N,+5V*%
X40640000Y44450000D03*
%TD*%
%TO.P,R11,2*%
%TO.N,Net-(J6-Pad1)*%
%TA.AperFunction,SMDPad,CuDef*%
G36*
G01*
X13070000Y47615001D02*
X13070000Y46364999D01*
G75*
G02*
X12820001Y46115000I-249999J0D01*
G01*
X12019999Y46115000D01*
G75*
G02*
X11770000Y46364999I0J249999D01*
G01*
X11770000Y47615001D01*
G75*
G02*
X12019999Y47865000I249999J0D01*
G01*
X12820001Y47865000D01*
G75*
G02*
X13070000Y47615001I0J-249999D01*
G01*
G37*
%TD.AperFunction*%
%TO.P,R11,1*%
%TO.N,Net-(D4-Pad1)*%
%TA.AperFunction,SMDPad,CuDef*%
G36*
G01*
X16170000Y47615001D02*
X16170000Y46364999D01*
G75*
G02*
X15920001Y46115000I-249999J0D01*
G01*
X15119999Y46115000D01*
G75*
G02*
X14870000Y46364999I0J249999D01*
G01*
X14870000Y47615001D01*
G75*
G02*
X15119999Y47865000I249999J0D01*
G01*
X15920001Y47865000D01*
G75*
G02*
X16170000Y47615001I0J-249999D01*
G01*
G37*
%TD.AperFunction*%
%TD*%
%TO.P,R10,2*%
%TO.N,Net-(D4-Pad2)*%
%TA.AperFunction,SMDPad,CuDef*%
G36*
G01*
X12074999Y58790000D02*
X13325001Y58790000D01*
G75*
G02*
X13575000Y58540001I0J-249999D01*
G01*
X13575000Y57739999D01*
G75*
G02*
X13325001Y57490000I-249999J0D01*
G01*
X12074999Y57490000D01*
G75*
G02*
X11825000Y57739999I0J249999D01*
G01*
X11825000Y58540001D01*
G75*
G02*
X12074999Y58790000I249999J0D01*
G01*
G37*
%TD.AperFunction*%
%TO.P,R10,1*%
%TO.N,+12V*%
%TA.AperFunction,SMDPad,CuDef*%
G36*
G01*
X12074999Y61890000D02*
X13325001Y61890000D01*
G75*
G02*
X13575000Y61640001I0J-249999D01*
G01*
X13575000Y60839999D01*
G75*
G02*
X13325001Y60590000I-249999J0D01*
G01*
X12074999Y60590000D01*
G75*
G02*
X11825000Y60839999I0J249999D01*
G01*
X11825000Y61640001D01*
G75*
G02*
X12074999Y61890000I249999J0D01*
G01*
G37*
%TD.AperFunction*%
%TD*%
%TO.P,R9,2*%
%TO.N,Net-(J6-Pad3)*%
%TA.AperFunction,SMDPad,CuDef*%
G36*
G01*
X18150000Y47615001D02*
X18150000Y46364999D01*
G75*
G02*
X17900001Y46115000I-249999J0D01*
G01*
X17099999Y46115000D01*
G75*
G02*
X16850000Y46364999I0J249999D01*
G01*
X16850000Y47615001D01*
G75*
G02*
X17099999Y47865000I249999J0D01*
G01*
X17900001Y47865000D01*
G75*
G02*
X18150000Y47615001I0J-249999D01*
G01*
G37*
%TD.AperFunction*%
%TO.P,R9,1*%
%TO.N,Net-(D3-Pad1)*%
%TA.AperFunction,SMDPad,CuDef*%
G36*
G01*
X21250000Y47615001D02*
X21250000Y46364999D01*
G75*
G02*
X21000001Y46115000I-249999J0D01*
G01*
X20199999Y46115000D01*
G75*
G02*
X19950000Y46364999I0J249999D01*
G01*
X19950000Y47615001D01*
G75*
G02*
X20199999Y47865000I249999J0D01*
G01*
X21000001Y47865000D01*
G75*
G02*
X21250000Y47615001I0J-249999D01*
G01*
G37*
%TD.AperFunction*%
%TD*%
%TO.P,R8,2*%
%TO.N,Net-(D3-Pad2)*%
%TA.AperFunction,SMDPad,CuDef*%
G36*
G01*
X14614999Y58790000D02*
X15865001Y58790000D01*
G75*
G02*
X16115000Y58540001I0J-249999D01*
G01*
X16115000Y57739999D01*
G75*
G02*
X15865001Y57490000I-249999J0D01*
G01*
X14614999Y57490000D01*
G75*
G02*
X14365000Y57739999I0J249999D01*
G01*
X14365000Y58540001D01*
G75*
G02*
X14614999Y58790000I249999J0D01*
G01*
G37*
%TD.AperFunction*%
%TO.P,R8,1*%
%TO.N,+12V*%
%TA.AperFunction,SMDPad,CuDef*%
G36*
G01*
X14614999Y61890000D02*
X15865001Y61890000D01*
G75*
G02*
X16115000Y61640001I0J-249999D01*
G01*
X16115000Y60839999D01*
G75*
G02*
X15865001Y60590000I-249999J0D01*
G01*
X14614999Y60590000D01*
G75*
G02*
X14365000Y60839999I0J249999D01*
G01*
X14365000Y61640001D01*
G75*
G02*
X14614999Y61890000I249999J0D01*
G01*
G37*
%TD.AperFunction*%
%TD*%
%TO.P,R7,2*%
%TO.N,Net-(J6-Pad5)*%
%TA.AperFunction,SMDPad,CuDef*%
G36*
G01*
X23230000Y47615001D02*
X23230000Y46364999D01*
G75*
G02*
X22980001Y46115000I-249999J0D01*
G01*
X22179999Y46115000D01*
G75*
G02*
X21930000Y46364999I0J249999D01*
G01*
X21930000Y47615001D01*
G75*
G02*
X22179999Y47865000I249999J0D01*
G01*
X22980001Y47865000D01*
G75*
G02*
X23230000Y47615001I0J-249999D01*
G01*
G37*
%TD.AperFunction*%
%TO.P,R7,1*%
%TO.N,Net-(D2-Pad1)*%
%TA.AperFunction,SMDPad,CuDef*%
G36*
G01*
X26330000Y47615001D02*
X26330000Y46364999D01*
G75*
G02*
X26080001Y46115000I-249999J0D01*
G01*
X25279999Y46115000D01*
G75*
G02*
X25030000Y46364999I0J249999D01*
G01*
X25030000Y47615001D01*
G75*
G02*
X25279999Y47865000I249999J0D01*
G01*
X26080001Y47865000D01*
G75*
G02*
X26330000Y47615001I0J-249999D01*
G01*
G37*
%TD.AperFunction*%
%TD*%
%TO.P,R6,2*%
%TO.N,Net-(D2-Pad2)*%
%TA.AperFunction,SMDPad,CuDef*%
G36*
G01*
X17154999Y58790000D02*
X18405001Y58790000D01*
G75*
G02*
X18655000Y58540001I0J-249999D01*
G01*
X18655000Y57739999D01*
G75*
G02*
X18405001Y57490000I-249999J0D01*
G01*
X17154999Y57490000D01*
G75*
G02*
X16905000Y57739999I0J249999D01*
G01*
X16905000Y58540001D01*
G75*
G02*
X17154999Y58790000I249999J0D01*
G01*
G37*
%TD.AperFunction*%
%TO.P,R6,1*%
%TO.N,+12V*%
%TA.AperFunction,SMDPad,CuDef*%
G36*
G01*
X17154999Y61890000D02*
X18405001Y61890000D01*
G75*
G02*
X18655000Y61640001I0J-249999D01*
G01*
X18655000Y60839999D01*
G75*
G02*
X18405001Y60590000I-249999J0D01*
G01*
X17154999Y60590000D01*
G75*
G02*
X16905000Y60839999I0J249999D01*
G01*
X16905000Y61640001D01*
G75*
G02*
X17154999Y61890000I249999J0D01*
G01*
G37*
%TD.AperFunction*%
%TD*%
%TO.P,R5,2*%
%TO.N,/PROBE_IN*%
%TA.AperFunction,SMDPad,CuDef*%
G36*
G01*
X28310000Y47615001D02*
X28310000Y46364999D01*
G75*
G02*
X28060001Y46115000I-249999J0D01*
G01*
X27259999Y46115000D01*
G75*
G02*
X27010000Y46364999I0J249999D01*
G01*
X27010000Y47615001D01*
G75*
G02*
X27259999Y47865000I249999J0D01*
G01*
X28060001Y47865000D01*
G75*
G02*
X28310000Y47615001I0J-249999D01*
G01*
G37*
%TD.AperFunction*%
%TO.P,R5,1*%
%TO.N,Net-(D1-Pad1)*%
%TA.AperFunction,SMDPad,CuDef*%
G36*
G01*
X31410000Y47615001D02*
X31410000Y46364999D01*
G75*
G02*
X31160001Y46115000I-249999J0D01*
G01*
X30359999Y46115000D01*
G75*
G02*
X30110000Y46364999I0J249999D01*
G01*
X30110000Y47615001D01*
G75*
G02*
X30359999Y47865000I249999J0D01*
G01*
X31160001Y47865000D01*
G75*
G02*
X31410000Y47615001I0J-249999D01*
G01*
G37*
%TD.AperFunction*%
%TD*%
%TO.P,R4,2*%
%TO.N,Net-(D1-Pad2)*%
%TA.AperFunction,SMDPad,CuDef*%
G36*
G01*
X19694999Y58790000D02*
X20945001Y58790000D01*
G75*
G02*
X21195000Y58540001I0J-249999D01*
G01*
X21195000Y57739999D01*
G75*
G02*
X20945001Y57490000I-249999J0D01*
G01*
X19694999Y57490000D01*
G75*
G02*
X19445000Y57739999I0J249999D01*
G01*
X19445000Y58540001D01*
G75*
G02*
X19694999Y58790000I249999J0D01*
G01*
G37*
%TD.AperFunction*%
%TO.P,R4,1*%
%TO.N,+12V*%
%TA.AperFunction,SMDPad,CuDef*%
G36*
G01*
X19694999Y61890000D02*
X20945001Y61890000D01*
G75*
G02*
X21195000Y61640001I0J-249999D01*
G01*
X21195000Y60839999D01*
G75*
G02*
X20945001Y60590000I-249999J0D01*
G01*
X19694999Y60590000D01*
G75*
G02*
X19445000Y60839999I0J249999D01*
G01*
X19445000Y61640001D01*
G75*
G02*
X19694999Y61890000I249999J0D01*
G01*
G37*
%TD.AperFunction*%
%TD*%
%TO.P,R3,2*%
%TO.N,/TX_PC*%
%TA.AperFunction,SMDPad,CuDef*%
G36*
G01*
X48630000Y55235001D02*
X48630000Y53984999D01*
G75*
G02*
X48380001Y53735000I-249999J0D01*
G01*
X47579999Y53735000D01*
G75*
G02*
X47330000Y53984999I0J249999D01*
G01*
X47330000Y55235001D01*
G75*
G02*
X47579999Y55485000I249999J0D01*
G01*
X48380001Y55485000D01*
G75*
G02*
X48630000Y55235001I0J-249999D01*
G01*
G37*
%TD.AperFunction*%
%TO.P,R3,1*%
%TO.N,Net-(R3-Pad1)*%
%TA.AperFunction,SMDPad,CuDef*%
G36*
G01*
X51730000Y55235001D02*
X51730000Y53984999D01*
G75*
G02*
X51480001Y53735000I-249999J0D01*
G01*
X50679999Y53735000D01*
G75*
G02*
X50430000Y53984999I0J249999D01*
G01*
X50430000Y55235001D01*
G75*
G02*
X50679999Y55485000I249999J0D01*
G01*
X51480001Y55485000D01*
G75*
G02*
X51730000Y55235001I0J-249999D01*
G01*
G37*
%TD.AperFunction*%
%TD*%
%TO.P,R2,2*%
%TO.N,/RX_CNC*%
%TA.AperFunction,SMDPad,CuDef*%
G36*
G01*
X47360000Y42535001D02*
X47360000Y41284999D01*
G75*
G02*
X47110001Y41035000I-249999J0D01*
G01*
X46309999Y41035000D01*
G75*
G02*
X46060000Y41284999I0J249999D01*
G01*
X46060000Y42535001D01*
G75*
G02*
X46309999Y42785000I249999J0D01*
G01*
X47110001Y42785000D01*
G75*
G02*
X47360000Y42535001I0J-249999D01*
G01*
G37*
%TD.AperFunction*%
%TO.P,R2,1*%
%TO.N,Net-(R12-Pad1)*%
%TA.AperFunction,SMDPad,CuDef*%
G36*
G01*
X50460000Y42535001D02*
X50460000Y41284999D01*
G75*
G02*
X50210001Y41035000I-249999J0D01*
G01*
X49409999Y41035000D01*
G75*
G02*
X49160000Y41284999I0J249999D01*
G01*
X49160000Y42535001D01*
G75*
G02*
X49409999Y42785000I249999J0D01*
G01*
X50210001Y42785000D01*
G75*
G02*
X50460000Y42535001I0J-249999D01*
G01*
G37*
%TD.AperFunction*%
%TD*%
%TO.P,R1,2*%
%TO.N,/TX_CNC*%
%TA.AperFunction,SMDPad,CuDef*%
G36*
G01*
X44080000Y41284999D02*
X44080000Y42535001D01*
G75*
G02*
X44329999Y42785000I249999J0D01*
G01*
X45130001Y42785000D01*
G75*
G02*
X45380000Y42535001I0J-249999D01*
G01*
X45380000Y41284999D01*
G75*
G02*
X45130001Y41035000I-249999J0D01*
G01*
X44329999Y41035000D01*
G75*
G02*
X44080000Y41284999I0J249999D01*
G01*
G37*
%TD.AperFunction*%
%TO.P,R1,1*%
%TO.N,Net-(R1-Pad1)*%
%TA.AperFunction,SMDPad,CuDef*%
G36*
G01*
X40980000Y41284999D02*
X40980000Y42535001D01*
G75*
G02*
X41229999Y42785000I249999J0D01*
G01*
X42030001Y42785000D01*
G75*
G02*
X42280000Y42535001I0J-249999D01*
G01*
X42280000Y41284999D01*
G75*
G02*
X42030001Y41035000I-249999J0D01*
G01*
X41229999Y41035000D01*
G75*
G02*
X40980000Y41284999I0J249999D01*
G01*
G37*
%TD.AperFunction*%
%TD*%
D11*
%TO.P,J8,8*%
%TO.N,GND*%
X5080000Y36830000D03*
%TO.P,J8,7*%
%TO.N,/END_X_OUT*%
X7620000Y36830000D03*
%TO.P,J8,6*%
%TO.N,GND*%
X5080000Y34290000D03*
%TO.P,J8,5*%
%TO.N,/END_Y_OUT*%
X7620000Y34290000D03*
%TO.P,J8,4*%
%TO.N,GND*%
X5080000Y31750000D03*
%TO.P,J8,3*%
%TO.N,/END_Z_OUT*%
X7620000Y31750000D03*
%TO.P,J8,2*%
%TO.N,GND*%
X5080000Y29210000D03*
D12*
%TO.P,J8,1*%
%TO.N,/PROBE_OUT*%
X7620000Y29210000D03*
%TD*%
D11*
%TO.P,J7,6*%
%TO.N,Net-(J7-Pad6)*%
X41910000Y67310000D03*
%TO.P,J7,5*%
%TO.N,/RX_PC*%
X44450000Y67310000D03*
%TO.P,J7,4*%
%TO.N,/TX_PC*%
X46990000Y67310000D03*
%TO.P,J7,3*%
%TO.N,/5V_PC*%
X49530000Y67310000D03*
%TO.P,J7,2*%
%TO.N,Net-(J7-Pad2)*%
X52070000Y67310000D03*
D12*
%TO.P,J7,1*%
%TO.N,/GND_PC*%
X54610000Y67310000D03*
%TD*%
D11*
%TO.P,J6,6*%
%TO.N,/END_Z_IN*%
X30480000Y62230000D03*
%TO.P,J6,5*%
%TO.N,Net-(J6-Pad5)*%
X30480000Y59690000D03*
%TO.P,J6,4*%
%TO.N,/END_Y_IN*%
X27940000Y62230000D03*
%TO.P,J6,3*%
%TO.N,Net-(J6-Pad3)*%
X27940000Y59690000D03*
%TO.P,J6,2*%
%TO.N,/END_X_IN*%
X25400000Y62230000D03*
D12*
%TO.P,J6,1*%
%TO.N,Net-(J6-Pad1)*%
X25400000Y59690000D03*
%TD*%
D11*
%TO.P,J4,16*%
%TO.N,GND*%
X30480000Y69850000D03*
%TO.P,J4,15*%
%TO.N,/PROBE_IN*%
X30480000Y67310000D03*
%TO.P,J4,14*%
%TO.N,GND*%
X27940000Y69850000D03*
%TO.P,J4,13*%
%TO.N,/PROBE_IN*%
X27940000Y67310000D03*
%TO.P,J4,12*%
%TO.N,GND*%
X25400000Y69850000D03*
%TO.P,J4,11*%
%TO.N,/END_Z_IN*%
X25400000Y67310000D03*
%TO.P,J4,10*%
%TO.N,GND*%
X22860000Y69850000D03*
%TO.P,J4,9*%
%TO.N,/END_Z_IN*%
X22860000Y67310000D03*
%TO.P,J4,8*%
%TO.N,GND*%
X20320000Y69850000D03*
%TO.P,J4,7*%
%TO.N,/END_Y_IN*%
X20320000Y67310000D03*
%TO.P,J4,6*%
%TO.N,GND*%
X17780000Y69850000D03*
%TO.P,J4,5*%
%TO.N,/END_Y_IN*%
X17780000Y67310000D03*
%TO.P,J4,4*%
%TO.N,GND*%
X15240000Y69850000D03*
%TO.P,J4,3*%
%TO.N,/END_X_IN*%
X15240000Y67310000D03*
%TO.P,J4,2*%
%TO.N,GND*%
X12700000Y69850000D03*
D12*
%TO.P,J4,1*%
%TO.N,/END_X_IN*%
X12700000Y67310000D03*
%TD*%
D11*
%TO.P,J3,8*%
%TO.N,GND*%
X5080000Y52070000D03*
%TO.P,J3,7*%
%TO.N,+5V*%
X7620000Y52070000D03*
%TO.P,J3,6*%
%TO.N,GND*%
X5080000Y49530000D03*
%TO.P,J3,5*%
%TO.N,+5V*%
X7620000Y49530000D03*
%TO.P,J3,4*%
%TO.N,GND*%
X5080000Y46990000D03*
%TO.P,J3,3*%
%TO.N,+5V*%
X7620000Y46990000D03*
%TO.P,J3,2*%
%TO.N,GND*%
X5080000Y44450000D03*
D12*
%TO.P,J3,1*%
%TO.N,+5V*%
X7620000Y44450000D03*
%TD*%
D11*
%TO.P,J2,8*%
%TO.N,GND*%
X5080000Y64770000D03*
%TO.P,J2,7*%
%TO.N,+12V*%
X7620000Y64770000D03*
%TO.P,J2,6*%
%TO.N,GND*%
X5080000Y62230000D03*
%TO.P,J2,5*%
%TO.N,+12V*%
X7620000Y62230000D03*
%TO.P,J2,4*%
%TO.N,GND*%
X5080000Y59690000D03*
%TO.P,J2,3*%
%TO.N,+12V*%
X7620000Y59690000D03*
%TO.P,J2,2*%
%TO.N,GND*%
X5080000Y57150000D03*
D12*
%TO.P,J2,1*%
%TO.N,+12V*%
X7620000Y57150000D03*
%TD*%
D11*
%TO.P,J1,4*%
%TO.N,+5V*%
X43180000Y39370000D03*
%TO.P,J1,3*%
%TO.N,/TX_CNC*%
X45720000Y39370000D03*
%TO.P,J1,2*%
%TO.N,/RX_CNC*%
X48260000Y39370000D03*
D12*
%TO.P,J1,1*%
%TO.N,GND*%
X50800000Y39370000D03*
%TD*%
%TO.P,D4,2*%
%TO.N,Net-(D4-Pad2)*%
%TA.AperFunction,SMDPad,CuDef*%
G36*
G01*
X15865000Y51575000D02*
X14615000Y51575000D01*
G75*
G02*
X14365000Y51825000I0J250000D01*
G01*
X14365000Y52750000D01*
G75*
G02*
X14615000Y53000000I250000J0D01*
G01*
X15865000Y53000000D01*
G75*
G02*
X16115000Y52750000I0J-250000D01*
G01*
X16115000Y51825000D01*
G75*
G02*
X15865000Y51575000I-250000J0D01*
G01*
G37*
%TD.AperFunction*%
%TO.P,D4,1*%
%TO.N,Net-(D4-Pad1)*%
%TA.AperFunction,SMDPad,CuDef*%
G36*
G01*
X15865000Y48600000D02*
X14615000Y48600000D01*
G75*
G02*
X14365000Y48850000I0J250000D01*
G01*
X14365000Y49775000D01*
G75*
G02*
X14615000Y50025000I250000J0D01*
G01*
X15865000Y50025000D01*
G75*
G02*
X16115000Y49775000I0J-250000D01*
G01*
X16115000Y48850000D01*
G75*
G02*
X15865000Y48600000I-250000J0D01*
G01*
G37*
%TD.AperFunction*%
%TD*%
%TO.P,D3,2*%
%TO.N,Net-(D3-Pad2)*%
%TA.AperFunction,SMDPad,CuDef*%
G36*
G01*
X20945000Y51575000D02*
X19695000Y51575000D01*
G75*
G02*
X19445000Y51825000I0J250000D01*
G01*
X19445000Y52750000D01*
G75*
G02*
X19695000Y53000000I250000J0D01*
G01*
X20945000Y53000000D01*
G75*
G02*
X21195000Y52750000I0J-250000D01*
G01*
X21195000Y51825000D01*
G75*
G02*
X20945000Y51575000I-250000J0D01*
G01*
G37*
%TD.AperFunction*%
%TO.P,D3,1*%
%TO.N,Net-(D3-Pad1)*%
%TA.AperFunction,SMDPad,CuDef*%
G36*
G01*
X20945000Y48600000D02*
X19695000Y48600000D01*
G75*
G02*
X19445000Y48850000I0J250000D01*
G01*
X19445000Y49775000D01*
G75*
G02*
X19695000Y50025000I250000J0D01*
G01*
X20945000Y50025000D01*
G75*
G02*
X21195000Y49775000I0J-250000D01*
G01*
X21195000Y48850000D01*
G75*
G02*
X20945000Y48600000I-250000J0D01*
G01*
G37*
%TD.AperFunction*%
%TD*%
%TO.P,D2,2*%
%TO.N,Net-(D2-Pad2)*%
%TA.AperFunction,SMDPad,CuDef*%
G36*
G01*
X26025000Y51575000D02*
X24775000Y51575000D01*
G75*
G02*
X24525000Y51825000I0J250000D01*
G01*
X24525000Y52750000D01*
G75*
G02*
X24775000Y53000000I250000J0D01*
G01*
X26025000Y53000000D01*
G75*
G02*
X26275000Y52750000I0J-250000D01*
G01*
X26275000Y51825000D01*
G75*
G02*
X26025000Y51575000I-250000J0D01*
G01*
G37*
%TD.AperFunction*%
%TO.P,D2,1*%
%TO.N,Net-(D2-Pad1)*%
%TA.AperFunction,SMDPad,CuDef*%
G36*
G01*
X26025000Y48600000D02*
X24775000Y48600000D01*
G75*
G02*
X24525000Y48850000I0J250000D01*
G01*
X24525000Y49775000D01*
G75*
G02*
X24775000Y50025000I250000J0D01*
G01*
X26025000Y50025000D01*
G75*
G02*
X26275000Y49775000I0J-250000D01*
G01*
X26275000Y48850000D01*
G75*
G02*
X26025000Y48600000I-250000J0D01*
G01*
G37*
%TD.AperFunction*%
%TD*%
%TO.P,D1,1*%
%TO.N,Net-(D1-Pad1)*%
%TA.AperFunction,SMDPad,CuDef*%
G36*
G01*
X31105000Y48600000D02*
X29855000Y48600000D01*
G75*
G02*
X29605000Y48850000I0J250000D01*
G01*
X29605000Y49775000D01*
G75*
G02*
X29855000Y50025000I250000J0D01*
G01*
X31105000Y50025000D01*
G75*
G02*
X31355000Y49775000I0J-250000D01*
G01*
X31355000Y48850000D01*
G75*
G02*
X31105000Y48600000I-250000J0D01*
G01*
G37*
%TD.AperFunction*%
%TO.P,D1,2*%
%TO.N,Net-(D1-Pad2)*%
%TA.AperFunction,SMDPad,CuDef*%
G36*
G01*
X31105000Y51575000D02*
X29855000Y51575000D01*
G75*
G02*
X29605000Y51825000I0J250000D01*
G01*
X29605000Y52750000D01*
G75*
G02*
X29855000Y53000000I250000J0D01*
G01*
X31105000Y53000000D01*
G75*
G02*
X31355000Y52750000I0J-250000D01*
G01*
X31355000Y51825000D01*
G75*
G02*
X31105000Y51575000I-250000J0D01*
G01*
G37*
%TD.AperFunction*%
%TD*%
%TO.P,C2,2*%
%TO.N,/GND_PC*%
%TA.AperFunction,SMDPad,CuDef*%
G36*
G01*
X42810000Y53959997D02*
X42810000Y55260003D01*
G75*
G02*
X43059997Y55510000I249997J0D01*
G01*
X43885003Y55510000D01*
G75*
G02*
X44135000Y55260003I0J-249997D01*
G01*
X44135000Y53959997D01*
G75*
G02*
X43885003Y53710000I-249997J0D01*
G01*
X43059997Y53710000D01*
G75*
G02*
X42810000Y53959997I0J249997D01*
G01*
G37*
%TD.AperFunction*%
%TO.P,C2,1*%
%TO.N,/5V_PC*%
%TA.AperFunction,SMDPad,CuDef*%
G36*
G01*
X39685000Y53959997D02*
X39685000Y55260003D01*
G75*
G02*
X39934997Y55510000I249997J0D01*
G01*
X40760003Y55510000D01*
G75*
G02*
X41010000Y55260003I0J-249997D01*
G01*
X41010000Y53959997D01*
G75*
G02*
X40760003Y53710000I-249997J0D01*
G01*
X39934997Y53710000D01*
G75*
G02*
X39685000Y53959997I0J249997D01*
G01*
G37*
%TD.AperFunction*%
%TD*%
%TO.P,C1,2*%
%TO.N,GND*%
%TA.AperFunction,SMDPad,CuDef*%
G36*
G01*
X54980000Y40020003D02*
X54980000Y38719997D01*
G75*
G02*
X54730003Y38470000I-249997J0D01*
G01*
X53904997Y38470000D01*
G75*
G02*
X53655000Y38719997I0J249997D01*
G01*
X53655000Y40020003D01*
G75*
G02*
X53904997Y40270000I249997J0D01*
G01*
X54730003Y40270000D01*
G75*
G02*
X54980000Y40020003I0J-249997D01*
G01*
G37*
%TD.AperFunction*%
%TO.P,C1,1*%
%TO.N,+5V*%
%TA.AperFunction,SMDPad,CuDef*%
G36*
G01*
X58105000Y40020003D02*
X58105000Y38719997D01*
G75*
G02*
X57855003Y38470000I-249997J0D01*
G01*
X57029997Y38470000D01*
G75*
G02*
X56780000Y38719997I0J249997D01*
G01*
X56780000Y40020003D01*
G75*
G02*
X57029997Y40270000I249997J0D01*
G01*
X57855003Y40270000D01*
G75*
G02*
X58105000Y40020003I0J-249997D01*
G01*
G37*
%TD.AperFunction*%
%TD*%
D20*
%TO.N,/GND_PC*%
X41910000Y64135000D03*
X54610000Y64135000D03*
%TO.N,Net-(J6-Pad5)*%
X33020000Y53340000D03*
X22860000Y53340000D03*
%TO.N,Net-(J6-Pad3)*%
X27940000Y55880000D03*
X15240000Y55880000D03*
%TO.N,Net-(J6-Pad1)*%
X10160000Y58420000D03*
X22860000Y58420000D03*
%TD*%
D21*
%TO.N,GND*%
X30480000Y69850000D02*
X27940000Y69850000D01*
X27940000Y69850000D02*
X25400000Y69850000D01*
X25400000Y69850000D02*
X22860000Y69850000D01*
X22860000Y69850000D02*
X20320000Y69850000D01*
X20320000Y69850000D02*
X17780000Y69850000D01*
X17780000Y69850000D02*
X15240000Y69850000D01*
X15240000Y69850000D02*
X12700000Y69850000D01*
X5080000Y57150000D02*
X5080000Y59690000D01*
X5080000Y59690000D02*
X5080000Y62230000D01*
X5080000Y62230000D02*
X5080000Y64770000D01*
X5080000Y44450000D02*
X5080000Y46990000D01*
X5080000Y46990000D02*
X5080000Y49530000D01*
X5080000Y49530000D02*
X5080000Y52070000D01*
X5080000Y52070000D02*
X5080000Y57150000D01*
X5080000Y66040000D02*
X3810000Y67310000D01*
X5080000Y64770000D02*
X5080000Y66040000D01*
X3810000Y67310000D02*
X3810000Y68580000D01*
X5080000Y69850000D02*
X12700000Y69850000D01*
X3810000Y68580000D02*
X5080000Y69850000D01*
X5080000Y43140000D02*
X3850000Y41910000D01*
X5080000Y44450000D02*
X5080000Y43140000D01*
D22*
X16079999Y38530001D02*
X17780000Y36830000D01*
X14400001Y38530001D02*
X16079999Y38530001D01*
X12700000Y36830000D02*
X14400001Y38530001D01*
X21159999Y38530001D02*
X22860000Y36830000D01*
X19480001Y38530001D02*
X21159999Y38530001D01*
X17780000Y36830000D02*
X19480001Y38530001D01*
X26239999Y38530001D02*
X27940000Y36830000D01*
X24560001Y38530001D02*
X26239999Y38530001D01*
X22860000Y36830000D02*
X24560001Y38530001D01*
D21*
X5080000Y29210000D02*
X5080000Y31750000D01*
X5080000Y31750000D02*
X5080000Y34290000D01*
X5080000Y34290000D02*
X5080000Y36830000D01*
X3850000Y40600000D02*
X3850000Y41910000D01*
D22*
X52070000Y44080000D02*
X52070000Y44450000D01*
D21*
X5080000Y39370000D02*
X3850000Y40600000D01*
X5080000Y36830000D02*
X5080000Y39370000D01*
D22*
X12700000Y36830000D02*
X11430000Y36830000D01*
X8890000Y39370000D02*
X5080000Y39370000D01*
X11430000Y36830000D02*
X8890000Y39370000D01*
X29640001Y38530001D02*
X40209999Y38530001D01*
X27940000Y36830000D02*
X29640001Y38530001D01*
X40209999Y38530001D02*
X41120001Y37619999D01*
D23*
X52070000Y44139942D02*
X53340000Y42869942D01*
X53340000Y42869942D02*
X53340000Y39370000D01*
X52070000Y44450000D02*
X52070000Y44139942D01*
D22*
X53340000Y39370000D02*
X54317500Y39370000D01*
X52070000Y39370000D02*
X53340000Y39370000D01*
X49049999Y37619999D02*
X50800000Y39370000D01*
X41120001Y37619999D02*
X49049999Y37619999D01*
X52070000Y39370000D02*
X50800000Y39370000D01*
D21*
%TO.N,+5V*%
X7620000Y43140000D02*
X8850000Y41910000D01*
X7620000Y44450000D02*
X7620000Y43140000D01*
X7620000Y44450000D02*
X7620000Y46990000D01*
X7620000Y46990000D02*
X7620000Y49530000D01*
X7620000Y49530000D02*
X7620000Y52070000D01*
D22*
X40640000Y44450000D02*
X40640000Y45720000D01*
X40640000Y45720000D02*
X41594990Y46674990D01*
X41594990Y46674990D02*
X53655010Y46674990D01*
X54610000Y45720000D02*
X54610000Y44450000D01*
X53655010Y46674990D02*
X54610000Y45720000D01*
X10829989Y39930011D02*
X8850000Y41910000D01*
X41349913Y39370000D02*
X40789902Y39930011D01*
X40640000Y44450000D02*
X38660011Y42470011D01*
X38660011Y39930011D02*
X10829989Y39930011D01*
X38660011Y42470011D02*
X38660011Y39930011D01*
X40789902Y39930011D02*
X38660011Y39930011D01*
X54890000Y44170000D02*
X54610000Y44450000D01*
X54890000Y41910000D02*
X54890000Y44170000D01*
X57442500Y39370000D02*
X57442500Y41617500D01*
X57150000Y41910000D02*
X54890000Y41910000D01*
X57442500Y41617500D02*
X57150000Y41910000D01*
X41349913Y39370000D02*
X43180000Y39370000D01*
%TO.N,/GND_PC*%
X43472500Y52362500D02*
X43180000Y52070000D01*
X43472500Y54610000D02*
X43472500Y52362500D01*
X43472500Y56147587D02*
X43472500Y54610000D01*
X41910000Y57710087D02*
X43472500Y56147587D01*
X41910000Y64135000D02*
X41910000Y57710087D01*
X53340000Y59690000D02*
X52070000Y59690000D01*
X54610000Y60960000D02*
X53340000Y59690000D01*
X54610000Y64135000D02*
X54610000Y60960000D01*
X54610000Y67310000D02*
X54610000Y64135000D01*
%TO.N,/5V_PC*%
X40347500Y52362500D02*
X40640000Y52070000D01*
X40347500Y54610000D02*
X40347500Y52362500D01*
X40640000Y52070000D02*
X40640000Y51805823D01*
X40640000Y50800000D02*
X40640000Y52070000D01*
X41470010Y49969990D02*
X40640000Y50800000D01*
X54610000Y50800000D02*
X53779990Y49969990D01*
X54610000Y52070000D02*
X54610000Y50800000D01*
X53779990Y49969990D02*
X41470010Y49969990D01*
X48540000Y64770000D02*
X49530000Y64770000D01*
X49530000Y64770000D02*
X49530000Y67310000D01*
X49530000Y59690000D02*
X49530000Y64770000D01*
X49530000Y59501828D02*
X49530000Y59690000D01*
X54610000Y54421828D02*
X49530000Y59501828D01*
X54610000Y52070000D02*
X54610000Y54421828D01*
D23*
%TO.N,Net-(D1-Pad2)*%
X25435987Y56090011D02*
X29238498Y52287500D01*
X20320000Y58140000D02*
X20320000Y57490000D01*
X21719989Y56090011D02*
X25435987Y56090011D01*
X20320000Y57490000D02*
X21719989Y56090011D01*
X29238498Y52287500D02*
X30480000Y52287500D01*
D22*
%TO.N,Net-(D1-Pad1)*%
X30760000Y44730000D02*
X30480000Y44450000D01*
X30760000Y46990000D02*
X30760000Y44730000D01*
X30760000Y46990000D02*
X30760000Y49032500D01*
X30760000Y49032500D02*
X30480000Y49312500D01*
D23*
%TO.N,Net-(D2-Pad2)*%
X21029999Y54890001D02*
X23509999Y54890001D01*
X17780000Y58140000D02*
X21029999Y54890001D01*
X23509999Y54890001D02*
X25400000Y53000000D01*
D22*
X17780000Y58140000D02*
X17780000Y58028638D01*
D23*
X25400000Y53000000D02*
X25400000Y52287500D01*
D22*
%TO.N,Net-(D2-Pad1)*%
X25680000Y44730000D02*
X25400000Y44450000D01*
X25680000Y46990000D02*
X25680000Y44730000D01*
X25680000Y46990000D02*
X25680000Y49032500D01*
X25680000Y49032500D02*
X25400000Y49312500D01*
D23*
%TO.N,Net-(D3-Pad2)*%
X20320000Y52287500D02*
X20320000Y53060000D01*
X20320000Y53060000D02*
X15240000Y58140000D01*
D22*
%TO.N,Net-(D3-Pad1)*%
X20600000Y44730000D02*
X20320000Y44450000D01*
X20600000Y46990000D02*
X20600000Y44730000D01*
X20600000Y46990000D02*
X20600000Y49032500D01*
X20600000Y49032500D02*
X20320000Y49312500D01*
D23*
%TO.N,Net-(D4-Pad2)*%
X12700000Y58140000D02*
X12700000Y54827500D01*
X12700000Y54827500D02*
X15240000Y52287500D01*
D22*
%TO.N,Net-(D4-Pad1)*%
X15520000Y44730000D02*
X15240000Y44450000D01*
X15520000Y46990000D02*
X15520000Y44730000D01*
X15520000Y49032500D02*
X15240000Y49312500D01*
X15520000Y46990000D02*
X15520000Y49032500D01*
D21*
%TO.N,+12V*%
X7620000Y57150000D02*
X7620000Y59690000D01*
X7620000Y62230000D02*
X7620000Y64770000D01*
X7620000Y66120000D02*
X8810000Y67310000D01*
X7620000Y64770000D02*
X7620000Y66120000D01*
D22*
X20320000Y61240000D02*
X17780000Y61240000D01*
X17780000Y61240000D02*
X15240000Y61240000D01*
X15240000Y61240000D02*
X12700000Y61240000D01*
X7900000Y61240000D02*
X7620000Y60960000D01*
D21*
X7620000Y60960000D02*
X7620000Y62230000D01*
X7620000Y59690000D02*
X7620000Y60960000D01*
D22*
X12700000Y61240000D02*
X7900000Y61240000D01*
%TO.N,/TX_CNC*%
X44730000Y40360000D02*
X45720000Y39370000D01*
X44730000Y41910000D02*
X44730000Y40360000D01*
%TO.N,/RX_CNC*%
X46710000Y40920000D02*
X48260000Y39370000D01*
X46710000Y41910000D02*
X46710000Y40920000D01*
%TO.N,/PROBE_IN*%
X27940000Y67310000D02*
X30480000Y67310000D01*
X27660000Y44730000D02*
X27940000Y44450000D01*
X27660000Y46990000D02*
X27660000Y44730000D01*
X27940000Y44450000D02*
X27940000Y43318630D01*
X27940000Y43318630D02*
X28508631Y42749999D01*
X33020000Y43769998D02*
X33020000Y50800000D01*
X28508631Y42749999D02*
X32000001Y42749999D01*
X32000001Y42749999D02*
X33020000Y43769998D01*
X33020000Y50800000D02*
X34670001Y52450001D01*
X34670001Y52450001D02*
X34670001Y63119999D01*
X34670001Y63119999D02*
X34290000Y63500000D01*
X34290000Y63500000D02*
X30480000Y67310000D01*
%TO.N,/END_Z_IN*%
X22860000Y67310000D02*
X25400000Y67310000D01*
X25400000Y67310000D02*
X27940000Y64770000D01*
X27940000Y64770000D02*
X29210000Y64770000D01*
X30480000Y63500000D02*
X30480000Y62230000D01*
X29210000Y64770000D02*
X30480000Y63500000D01*
%TO.N,/END_Y_IN*%
X17780000Y67310000D02*
X20320000Y67310000D01*
X24610001Y65559999D02*
X27940000Y62230000D01*
X22070001Y65559999D02*
X24610001Y65559999D01*
X20320000Y67310000D02*
X22070001Y65559999D01*
%TO.N,/END_X_IN*%
X12700000Y67310000D02*
X15240000Y67310000D01*
X23470011Y64159989D02*
X25400000Y62230000D01*
X15240000Y67310000D02*
X18390011Y64159989D01*
X18390011Y64159989D02*
X23470011Y64159989D01*
%TO.N,/TX_PC*%
X46990000Y67310000D02*
X46990000Y59690000D01*
X46990000Y56475000D02*
X46990000Y59690000D01*
X47980000Y55485000D02*
X46990000Y56475000D01*
X47980000Y54610000D02*
X47980000Y55485000D01*
%TO.N,/RX_PC*%
X45720000Y55880000D02*
X44450000Y57150000D01*
X44450000Y57150000D02*
X44450000Y59690000D01*
X45720000Y52070000D02*
X45720000Y55880000D01*
X45440000Y64770000D02*
X44450000Y64770000D01*
X44450000Y64770000D02*
X44450000Y67310000D01*
X44450000Y59690000D02*
X44450000Y64770000D01*
D23*
%TO.N,/PROBE_OUT*%
X30308002Y36830000D02*
X30480000Y36830000D01*
X28708001Y35229999D02*
X30308002Y36830000D01*
X26339999Y35229999D02*
X28708001Y35229999D01*
X20320000Y29210000D02*
X26339999Y35229999D01*
X7620000Y29210000D02*
X20320000Y29210000D01*
%TO.N,/END_Z_OUT*%
X20320000Y31750000D02*
X25400000Y36830000D01*
X7620000Y31750000D02*
X20320000Y31750000D01*
%TO.N,/END_Y_OUT*%
X8469999Y33440001D02*
X18200001Y33440001D01*
X7620000Y34290000D02*
X8469999Y33440001D01*
X20320000Y35560000D02*
X20320000Y36830000D01*
X18200001Y33440001D02*
X20320000Y35560000D01*
%TO.N,/END_X_OUT*%
X9220001Y35229999D02*
X14909999Y35229999D01*
X7620000Y36830000D02*
X9220001Y35229999D01*
X15240000Y35560000D02*
X15240000Y36830000D01*
X14909999Y35229999D02*
X15240000Y35560000D01*
D22*
%TO.N,Net-(R1-Pad1)*%
X42900000Y44170000D02*
X43180000Y44450000D01*
X43180000Y43460000D02*
X43180000Y44450000D01*
X41630000Y41910000D02*
X43180000Y43460000D01*
%TO.N,Net-(R3-Pad1)*%
X52070000Y53620000D02*
X52070000Y52070000D01*
X51080000Y54610000D02*
X52070000Y53620000D01*
%TO.N,Net-(J6-Pad5)*%
X22580000Y44730000D02*
X22860000Y44450000D01*
X22580000Y46990000D02*
X22580000Y44730000D01*
X30480000Y55880000D02*
X33020000Y53340000D01*
X30480000Y59690000D02*
X30480000Y55880000D01*
X22860000Y53340000D02*
X22860000Y47270000D01*
X22860000Y47270000D02*
X22580000Y46990000D01*
%TO.N,Net-(J6-Pad3)*%
X17500000Y44730000D02*
X17780000Y44450000D01*
X17500000Y46990000D02*
X17500000Y44730000D01*
X27940000Y59690000D02*
X27940000Y55880000D01*
X15240000Y55880000D02*
X17500000Y53620000D01*
X17500000Y53620000D02*
X17500000Y46990000D01*
%TO.N,Net-(J6-Pad1)*%
X12420000Y44730000D02*
X12700000Y44450000D01*
X12420000Y46990000D02*
X12420000Y44730000D01*
X24130000Y58420000D02*
X25400000Y59690000D01*
X22860000Y58420000D02*
X24130000Y58420000D01*
X10160000Y58420000D02*
X10160000Y53340000D01*
X10160000Y53340000D02*
X12420000Y51080000D01*
X12420000Y51080000D02*
X12420000Y46990000D01*
%TO.N,Net-(J10-Pad5)*%
X31750000Y31115000D02*
X33655000Y29210000D01*
X35430087Y29210000D02*
X37180000Y27460087D01*
X37180000Y27460087D02*
X37180000Y26670000D01*
X33655000Y29210000D02*
X35430087Y29210000D01*
D23*
%TO.N,Net-(J10-Pad9)*%
X30957999Y32765001D02*
X32639999Y32765001D01*
X32639999Y32765001D02*
X34290000Y31115000D01*
X30099999Y31907001D02*
X30957999Y32765001D01*
X30099999Y30322999D02*
X30099999Y31907001D01*
X36592998Y23830000D02*
X30099999Y30322999D01*
X38565000Y23830000D02*
X36592998Y23830000D01*
D22*
%TO.N,Net-(J10-Pad4)*%
X36830000Y29790000D02*
X39950000Y26670000D01*
X36830000Y29790000D02*
X36830000Y31115000D01*
D23*
%TO.N,Net-(J10-Pad8)*%
X36519989Y33965011D02*
X39370000Y31115000D01*
X30460939Y33965011D02*
X36519989Y33965011D01*
X27419999Y30924071D02*
X30460939Y33965011D01*
X27419999Y23905999D02*
X27419999Y30924071D01*
X29095999Y22229999D02*
X27419999Y23905999D01*
X39734999Y22229999D02*
X29095999Y22229999D01*
X41335000Y23830000D02*
X39734999Y22229999D01*
D22*
%TO.N,Net-(J10-Pad3)*%
X41910000Y27480000D02*
X42720000Y26670000D01*
X41910000Y31115000D02*
X41910000Y27480000D01*
D23*
%TO.N,Net-(J10-Pad7)*%
X47300011Y33965011D02*
X44450000Y31115000D01*
X58020001Y30879999D02*
X54934989Y33965011D01*
X54934989Y33965011D02*
X47300011Y33965011D01*
X56344001Y22229999D02*
X58020001Y23905999D01*
X58020001Y23905999D02*
X58020001Y30879999D01*
X45705001Y22229999D02*
X56344001Y22229999D01*
X44105000Y23830000D02*
X45705001Y22229999D01*
D22*
%TO.N,Net-(J10-Pad2)*%
X45490000Y28980000D02*
X45490000Y26670000D01*
X46990000Y30480000D02*
X45490000Y28980000D01*
X46990000Y30480000D02*
X46990000Y31115000D01*
D23*
%TO.N,Net-(J10-Pad6)*%
X48528491Y23830000D02*
X53720001Y29021510D01*
X46875000Y23830000D02*
X48528491Y23830000D01*
X49530000Y32317081D02*
X49530000Y31115000D01*
X53560001Y32765001D02*
X49977920Y32765001D01*
X49977920Y32765001D02*
X49530000Y32317081D01*
X53720001Y32605001D02*
X53560001Y32765001D01*
X53720001Y29021510D02*
X53720001Y32605001D01*
D22*
%TO.N,Net-(J10-Pad1)*%
X52070000Y29210000D02*
X52070000Y31115000D01*
X49530000Y26670000D02*
X52070000Y29210000D01*
X48260000Y26670000D02*
X49530000Y26670000D01*
%TO.N,Net-(R12-Pad1)*%
X49810000Y41910000D02*
X51790000Y41910000D01*
X49810000Y44170000D02*
X49530000Y44450000D01*
X49810000Y41910000D02*
X49810000Y44170000D01*
%TD*%
M02*
