M48
; DRILL file {KiCad 5.1.10-88a1d61d58~90~ubuntu20.04.1} date Thu Aug 18 12:34:10 2022
; FORMAT={3:3/ absolute / metric / suppress leading zeros}
; #@! TF.CreationDate,2022-08-18T12:34:10+02:00
; #@! TF.GenerationSoftware,Kicad,Pcbnew,5.1.10-88a1d61d58~90~ubuntu20.04.1
FMAT,2
METRIC,TZ
T1C0.800
T2C1.000
T3C1.190
T4C3.200
T5C5.300
%
G90
G05
T1
X10160Y58420
X12700Y44450
X12700Y36830
X15240Y55880
X15240Y44450
X15240Y36830
X17780Y44450
X17780Y36830
X20320Y44450
X20320Y36830
X22860Y58420
X22860Y53340
X22860Y44450
X22860Y36830
X25400Y44450
X25400Y36830
X27940Y55880
X27940Y44450
X27940Y36830
X30480Y44450
X30480Y36830
X33020Y53340
X40640Y52070
X40640Y44450
X41910Y64135
X43180Y52070
X43180Y44450
X45720Y52070
X45720Y44450
X49530Y52070
X49530Y44450
X52070Y52070
X52070Y44450
X54610Y64135
X54610Y52070
X54610Y44450
T2
X5080Y64770
X5080Y62230
X5080Y59690
X5080Y57150
X5080Y52070
X5080Y49530
X5080Y46990
X5080Y44450
X5080Y36830
X5080Y34290
X5080Y31750
X5080Y29210
X7620Y64770
X7620Y62230
X7620Y59690
X7620Y57150
X7620Y52070
X7620Y49530
X7620Y46990
X7620Y44450
X7620Y36830
X7620Y34290
X7620Y31750
X7620Y29210
X12700Y69850
X12700Y67310
X15240Y69850
X15240Y67310
X17780Y69850
X17780Y67310
X20320Y69850
X20320Y67310
X22860Y69850
X22860Y67310
X25400Y69850
X25400Y67310
X25400Y62230
X25400Y59690
X27940Y69850
X27940Y67310
X27940Y62230
X27940Y59690
X30480Y69850
X30480Y67310
X30480Y62230
X30480Y59690
X31750Y31115
X34290Y31115
X36830Y31115
X37180Y26670
X38565Y23830
X39370Y31115
X39950Y26670
X41335Y23830
X41910Y67310
X41910Y31115
X42720Y26670
X43180Y39370
X44105Y23830
X44450Y67310
X44450Y31115
X45490Y26670
X45720Y39370
X46875Y23830
X46990Y67310
X46990Y31115
X48260Y39370
X48260Y26670
X49530Y67310
X49530Y31115
X50800Y39370
X52070Y67310
X52070Y31115
X54610Y67310
T3
X44450Y59690
X46990Y59690
X49530Y59690
X52070Y59690
T4
X30220Y25250
X55220Y25250
T5
X7620Y85979
X7620Y10033
X20320Y10033
X52070Y85979
X52070Y10033
T0
M30
